<?xml version="1.0" encoding="UTF-8"?>
<svg id="_图层_1" data-name="图层_1" xmlns="http://www.w3.org/2000/svg" version="1.1" viewBox="0 0 200 200">
  <!-- Generator: Adobe Illustrator 30.3.0, SVG Export Plug-In . SVG Version: 2.1.3 Build 182)  -->
  <defs>
    <style>
      .st0 {
        fill: #8a8a8a;
      }
    </style>
  </defs>
  <path class="st0" d="M189.7,64.2v-12c0-12.6-10.2-26.8-23.7-26.8h-59.8l-1.8-3.3c-2.9-5.6-8.7-9.1-15-9H23.8c-12.4.1-22.4,10.4-22.3,22.8,0,0,0,0,0,0v124.5c-.2,12.4,9.8,22.7,22.2,22.8,0,0,0,0,0,0h154c12.4-.1,22.4-10.3,22.2-22.8,0,0,0,0,0,0v-76.4c0-7.2-3.9-14.4-10.2-19.8h0,0ZM172.6,58.2h-49l-8.2-15.6h50.8c2.7,0,6.6,5.1,6.6,9.6v6s-.2,0-.2,0ZM182.8,83.7v76.4c0,3-2.2,5.5-5.1,5.7H23.8c-3-.2-5.3-2.7-5.1-5.7V35.6c0-2.9,2.2-5.4,5.1-5.7h65.3l21.6,40.9c1.5,2.7,4.4,4.4,7.5,4.5h55.9c3.3,0,8.8,5.4,8.8,8.4h0Z"/>
</svg>