<?xml version="1.0" encoding="UTF-8"?>
<svg id="_图层_1" data-name="图层_1" xmlns="http://www.w3.org/2000/svg" version="1.1" viewBox="0 0 200 200">
  <!-- Generator: Adobe Illustrator 30.3.0, SVG Export Plug-In . SVG Version: 2.1.3 Build 182)  -->
  <defs>
    <style>
      .st0 {
        fill: #8a8a8a;
      }
    </style>
  </defs>
  <path class="st0" d="M115.3,158.9c-3.2,2.3-4.1,6.7-1.8,9.9,1.4,2.1,3.7,3.1,5.8,3.1s2.9-.5,4.1-1.3c4.6-3.2,7.2-8.6,6.7-14-.3-4.2-2.2-8-5.4-10.8-3.2-2.7-7.2-4.1-11.4-3.8-4.2.3-8,2.2-10.8,5.4-2.7,3.2-4.1,7.2-3.8,11.4.2,3.8,3.4,6.6,7.1,6.6h.5c3.9-.2,6.8-3.7,6.6-7.6,0-.5.2-.9.3-1.1s.5-.5,1-.5.9.2,1.1.3c.2.2.5.5.5,1,.1.9-.3,1.3-.6,1.4h0Z"/>
  <path class="st0" d="M178,37.2l13.9-24.1c1.9-3.4.8-7.8-2.6-9.7s-7.8-.8-9.7,2.6l-11.8,20.3-7.3,12.7-40.7,70.7c-1.9,3.4-.8,7.8,2.6,9.7s7.8.8,9.7-2.6l38.2-66.2c11,15.4,16.3,34,15.5,53.2-.5,10.4-3,20.5-7.5,30.4-4.5,9.6-10.5,18.3-18.1,25.9-7.6,7.6-16.3,13.7-25.8,18.1-9.8,4.6-20,7.1-30.4,7.5-1.4.1-2.6.1-4,.1-9.9,0-19.6-1.7-29-5-2.3-.8-3.2-2.6-3.7-3.5-.3-1-.8-3,.5-5.1l12.6-21.8c7.3-12.7,3-28.9-9.7-36.1-4-2.3-8.6-3.5-13.2-3.5-9.4,0-18.1,5-22.9,13.2l-7.1,12.3c-.6,1-1.5,1.6-2.7,1.6s-2.2-.3-2.7-1.7c-4.6-9.9-7.2-20.5-7.8-31.6-.6-12,1.3-23.6,5.5-34.7,4.1-10.6,10.2-20.3,18.1-28.6s17.3-15,27.8-19.6c10.8-4.8,22.4-7.2,34.2-7.2s3.5,0,5.3.1c11.3.7,22.3,3.5,32.3,8.4l2.1,1c3.4,1.8,7.5.6,9.5-2.7,2.1-3.5.7-8-2.9-9.9C134,5,120.5,1,106,.2c-2.1-.1-4.1-.2-6-.2C43.3,0-2.9,47.7,0,105.1c.7,13.1,3.9,25.6,9,36.9,3.1,6.6,9.4,10,15.8,10s11.8-2.9,15.1-8.7l7.1-12.3c2.3-3.9,6.3-6,10.5-6s4,.5,5.9,1.5c5.9,3.3,7.9,11,4.5,16.9l-12.6,21.7c-6.3,11-1.3,25,10.7,29.3,10.5,3.8,21.9,5.8,33.8,5.8s3.1,0,4.6-.1c50-2.3,93.1-45.4,95.4-95.4,1.5-25.7-7-49.2-21.7-67.5h0Z"/>
</svg>