<?xml version="1.0" encoding="UTF-8"?>
<svg id="_图层_1" data-name="图层_1" xmlns="http://www.w3.org/2000/svg" version="1.1" viewBox="0 0 200 200">
  <!-- Generator: Adobe Illustrator 30.3.0, SVG Export Plug-In . SVG Version: 2.1.3 Build 182)  -->
  <defs>
    <style>
      .st0 {
        fill: #8a8a8a;
        fill-opacity: .9;
      }
    </style>
  </defs>
  <path class="st0" d="M158.3,0c1.2,0,2.4,0,3.6.3,12.5,1.9,21.1,13.5,19.5,25.9v.6c0,0-7.5,47.7-7.5,47.7,4.3.8,7.5,4.4,7.7,8.7v.5s0,23.3,0,23.3c0,14.9-11.6,27.1-26.5,27.9h-.7s-.7,0-.7,0h-23.3v39.5c0,13.7-10.7,24.8-24.2,25.5h-.7s-.7,0-.7,0c-13.6,0-24.7-10.6-25.5-24.2v-.7s0-.7,0-.7v-39.5h-23.3c-14.6,0-26.7-11.3-27.8-25.8v-.7s0-.7,0-.7v-.7s0-23.3,0-23.3c0-5,3.9-9,8.8-9.3h.3c-.7-9.7-2.5-19.2-5.5-28.5-3-9.4-6.7-17.6-11.2-24.6-4.1-6.5-2.1-15.1,4.4-19.2C27,.8,29.4.1,31.8,0h.5S158.3,0,158.3,0ZM163,93H46.7v14.3c.2,4.8,4,8.8,8.8,9h.5s32.6,0,32.6,0c5,0,9,3.9,9.3,8.8v.5s0,48.7,0,48.7v.4c.1,3.9,3.4,6.9,7.2,6.7,3.6-.1,6.5-3,6.7-6.6v-.4s0-48.8,0-48.8c0-5,3.9-9,8.8-9.3h.5s32.4,0,32.4,0h.4c4.8-.2,8.8-4,9-8.8v-.5s0-14,0-14ZM40.4,18.6l.3.6c3.3,6.4,6.2,13.4,8.7,21.1,3.4,10.4,5.5,21.1,6.3,32v2c.1,0,.1.2.1.2h99.3l7.8-50.4c.4-2.3-1-4.5-3.2-5.1h-.3c0,0-.3-.2-.3-.2h-.4s-.4,0-.4,0c0,0-117.9,0-117.9,0Z"/>
</svg>